# xmcd
#
# Track frame offsets: 
#        150
#        34107
#        66922
#        88570
#        112987
#        130215
#
# Disc length: 2063 seconds
#
# Revision: 1
# Processed by: cddbd v1.5.2PL0 Copyright (c) Steve Scherf et al.
# Submitted via: ExactAudioCopyFreeDBPlugin 1.0
#
DISCID=49080d06
DTITLE=Leroy Hutson - Unforgettable
DYEAR=1979
DGENRE=Soul
TTITLE0=Unforgettable
TTITLE1=(You Put The) Funk In My Life
TTITLE2=Right Or Wrong
TTITLE3=So Nice
TTITLE4=Lonely Without You
TTITLE5=More Where That Came From
EXTD=
EXTT0=
EXTT1=
EXTT2=
EXTT3=
EXTT4=
EXTT5=
PLAYORDER=
